<svg width="101" height="101" viewBox="0 0 101 101" fill="none" xmlns="http://www.w3.org/2000/svg">
<path d="M50.255 100.767C78.01 100.767 100.51 78.2671 100.51 50.5121C100.51 22.757 78.01 0.25708 50.255 0.25708C22.4999 0.25708 0 22.757 0 50.5121C0 78.2671 22.4999 100.767 50.255 100.767Z" fill="#9BA5CF"/>
<path d="M41.2021 99.9522C44.1389 100.486 47.164 100.767 50.2549 100.767C78.01 100.767 100.51 78.2672 100.51 50.5121C100.51 41.7656 98.2737 33.5422 94.3446 26.3791L86.8664 18.9009L13.6436 72.3934L41.2021 99.9522Z" fill="#7782B0"/>
<path d="M13.6436 18.9009H86.8664V72.3934H13.6436V18.9009Z" fill="#E1EBF0"/>
<path d="M50.2549 18.9015H86.8656V72.3926H50.2549V18.9015Z" fill="#E1EBF0"/>
<path d="M13.6436 72.3935L50.2549 40.1586L86.8664 72.3935H13.6436Z" fill="#B2CDDB"/>
<path d="M86.8656 72.3926H50.2549V40.158L58.1178 47.0808L86.8656 72.3926Z" fill="#B2CDDB"/>
<path d="M13.6436 18.9009L50.2549 54.7904L86.8664 18.9009H13.6436Z" fill="white"/>
<path d="M86.8656 18.9015L58.1178 47.0808L50.2549 54.7904V18.9015H86.8656Z" fill="white"/>
<path d="M63.2121 62.8189H57.3229V51.6715C57.3229 47.7744 54.1523 44.6038 50.255 44.6038C46.3577 44.6038 43.1871 47.7744 43.1871 51.6715V62.8189H37.2979V51.6715C37.2979 44.527 43.1103 38.7145 50.255 38.7145C57.3996 38.7145 63.2121 44.527 63.2121 51.6715V62.8189Z" fill="#D170D7"/>
<path d="M63.2112 51.6723V62.8187H57.322V51.6723C57.322 47.7736 54.1516 44.6032 50.2549 44.6032V38.7139C57.3985 38.7139 63.2112 44.5266 63.2112 51.6723Z" fill="#9C4FA0"/>
<path d="M31.9492 61.0894H68.5604V89.0971H31.9492V61.0894Z" fill="#F7F4F0"/>
<path d="M50.2549 61.0892H68.5606V89.0966H50.2549V61.0892Z" fill="#E5E1DC"/>
<path d="M55.0661 72.1604C55.0661 69.5034 52.912 67.3493 50.255 67.3493C47.5979 67.3493 45.4438 69.5034 45.4438 72.1604C45.4438 73.6716 46.1411 75.0193 47.2308 75.9013V82.8375H53.2791V75.9013C54.3688 75.0193 55.0661 73.6714 55.0661 72.1604Z" fill="#D170D7"/>
<path d="M55.0664 72.161C55.0664 73.6706 54.3695 75.0192 53.28 75.9006V82.8382H50.2549V67.3494C52.9129 67.3494 55.0664 69.5029 55.0664 72.161Z" fill="#9C4FA0"/>
</svg>
